<svg width="20" height="20" viewBox="0 0 20 20" fill="none" xmlns="http://www.w3.org/2000/svg">
<path d="M13.3337 14.9998L15.0003 16.6665L18.3337 13.3332M18.3337 8.33317H1.66699M18.3337 9.99984V6.83317C18.3337 5.89975 18.3337 5.43304 18.152 5.07652C17.9922 4.76292 17.7372 4.50795 17.4236 4.34816C17.0671 4.1665 16.6004 4.1665 15.667 4.1665H4.33366C3.40024 4.1665 2.93353 4.1665 2.57701 4.34816C2.2634 4.50795 2.00844 4.76292 1.84865 5.07652C1.66699 5.43304 1.66699 5.89975 1.66699 6.83317V13.1665C1.66699 14.0999 1.66699 14.5666 1.84865 14.9232C2.00844 15.2368 2.2634 15.4917 2.57701 15.6515C2.93353 15.8332 3.40024 15.8332 4.33366 15.8332H10.0003" stroke="#414350" stroke-width="1.5" stroke-linecap="round" stroke-linejoin="round"/>
</svg>
