<svg width="20" height="20" viewBox="0 0 20 20" fill="none" xmlns="http://www.w3.org/2000/svg">
<g clip-path="url(#clip0_293_2571)">
<path d="M7.5753 7.49983C7.77122 6.94289 8.15792 6.47325 8.66693 6.17411C9.17593 5.87496 9.77438 5.76561 10.3563 5.86542C10.9382 5.96523 11.466 6.26777 11.8462 6.71944C12.2264 7.17111 12.4345 7.74276 12.4336 8.33316C12.4336 9.99983 9.93363 10.8332 9.93363 10.8332M10.0003 14.1665H10.0087M1.66699 7.10212V12.8976C1.66699 13.1014 1.66699 13.2033 1.69002 13.2992C1.71043 13.3842 1.7441 13.4655 1.78979 13.5401C1.84133 13.6242 1.91339 13.6962 2.05752 13.8404L6.1598 17.9426C6.30393 18.0868 6.37599 18.1588 6.46009 18.2104C6.53465 18.2561 6.61594 18.2897 6.70097 18.3101C6.79687 18.3332 6.89879 18.3332 7.10261 18.3332H12.898C13.1019 18.3332 13.2038 18.3332 13.2997 18.3101C13.3847 18.2897 13.466 18.2561 13.5406 18.2104C13.6247 18.1588 13.6967 18.0868 13.8408 17.9426L17.9431 13.8404C18.0873 13.6962 18.1593 13.6242 18.2109 13.5401C18.2566 13.4655 18.2902 13.3842 18.3106 13.2992C18.3337 13.2033 18.3337 13.1014 18.3337 12.8976V7.10212C18.3337 6.8983 18.3337 6.79638 18.3106 6.70048C18.2902 6.61545 18.2566 6.53416 18.2109 6.4596C18.1593 6.3755 18.0873 6.30344 17.9431 6.15931L13.8408 2.05703C13.6967 1.9129 13.6247 1.84084 13.5406 1.7893C13.466 1.74361 13.3847 1.70994 13.2997 1.68953C13.2038 1.6665 13.1019 1.6665 12.898 1.6665H7.10261C6.89879 1.6665 6.79687 1.6665 6.70097 1.68953C6.61594 1.70994 6.53465 1.74361 6.46009 1.7893C6.37599 1.84084 6.30393 1.9129 6.1598 2.05703L2.05752 6.15931C1.91339 6.30344 1.84133 6.3755 1.78979 6.4596C1.7441 6.53416 1.71043 6.61545 1.69002 6.70048C1.66699 6.79638 1.66699 6.8983 1.66699 7.10212Z" stroke="#414350" stroke-width="1.5" stroke-linecap="round" stroke-linejoin="round"/>
</g>
<defs>
<clipPath id="clip0_293_2571">
<rect width="20" height="20" fill="white"/>
</clipPath>
</defs>
</svg>
