<svg width="17" height="18" viewBox="0 0 17 18" fill="none" xmlns="http://www.w3.org/2000/svg">
<path d="M13.4587 15.3748V11.1248M11.3337 13.2498H15.5837M15.5837 7.58317H1.41699M15.5837 8.99984V6.30817C15.5837 5.51476 15.5837 5.11806 15.4293 4.81502C15.2934 4.54846 15.0767 4.33173 14.8101 4.19591C14.5071 4.0415 14.1104 4.0415 13.317 4.0415H3.68366C2.89025 4.0415 2.49355 4.0415 2.19051 4.19591C1.92394 4.33173 1.70722 4.54845 1.5714 4.81502C1.41699 5.11806 1.41699 5.51476 1.41699 6.30817V11.6915C1.41699 12.4849 1.41699 12.8816 1.5714 13.1847C1.70722 13.4512 1.92394 13.6679 2.19051 13.8038C2.49355 13.9582 2.89025 13.9582 3.68366 13.9582H8.50033" stroke="white" stroke-width="1.5" stroke-linecap="round" stroke-linejoin="round"/>
</svg>
