<svg width="174" height="31" viewBox="0 0 174 31" fill="none" xmlns="http://www.w3.org/2000/svg">
<path d="M19.2759 24.2609H11.213L7.62069 31H3.13793L6.7776 24.2609H0L13 0L15.2414 4.26812L6.05172 20.8913H8.59744L16.3621 6.51449L26 24.2609H21.5172L16.3621 14.6014L13.0092 20.8913H17.4828L19.2759 24.2609Z" fill="#594ED1"/>
<path d="M40.5996 23.0001V8.6001H43.0096V20.7401H49.3696V23.0001H40.5996Z" fill="black"/>
<path d="M55.9737 23.3001C54.8803 23.3001 53.9203 23.0634 53.0937 22.5901C52.267 22.1168 51.6203 21.4601 51.1537 20.6201C50.6937 19.7801 50.4637 18.8134 50.4637 17.7201C50.4637 16.5401 50.6903 15.5168 51.1437 14.6501C51.597 13.7768 52.227 13.1001 53.0337 12.6201C53.8403 12.1401 54.7737 11.9001 55.8337 11.9001C56.9537 11.9001 57.9037 12.1634 58.6837 12.6901C59.4703 13.2101 60.0537 13.9468 60.4337 14.9001C60.8137 15.8534 60.957 16.9768 60.8637 18.2701H58.4737V17.3901C58.467 16.2168 58.2603 15.3601 57.8537 14.8201C57.447 14.2801 56.807 14.0101 55.9337 14.0101C54.947 14.0101 54.2137 14.3168 53.7337 14.9301C53.2537 15.5368 53.0137 16.4268 53.0137 17.6001C53.0137 18.6934 53.2537 19.5401 53.7337 20.1401C54.2137 20.7401 54.9137 21.0401 55.8337 21.0401C56.427 21.0401 56.937 20.9101 57.3637 20.6501C57.797 20.3834 58.1303 20.0001 58.3637 19.5001L60.7437 20.2201C60.3303 21.1934 59.6903 21.9501 58.8237 22.4901C57.9637 23.0301 57.0137 23.3001 55.9737 23.3001ZM52.2537 18.2701V16.4501H59.6837V18.2701H52.2537Z" fill="black"/>
<path d="M65.9196 23.3001C65.1396 23.3001 64.4796 23.1534 63.9396 22.8601C63.3996 22.5601 62.9896 22.1634 62.7096 21.6701C62.4363 21.1768 62.2996 20.6334 62.2996 20.0401C62.2996 19.5201 62.3863 19.0534 62.5596 18.6401C62.7329 18.2201 62.9996 17.8601 63.3596 17.5601C63.7196 17.2534 64.1863 17.0034 64.7596 16.8101C65.1929 16.6701 65.6996 16.5434 66.2796 16.4301C66.8663 16.3168 67.4996 16.2134 68.1796 16.1201C68.8663 16.0201 69.5829 15.9134 70.3296 15.8001L69.4696 16.2901C69.4763 15.5434 69.3096 14.9934 68.9696 14.6401C68.6296 14.2868 68.0563 14.1101 67.2496 14.1101C66.7629 14.1101 66.2929 14.2234 65.8396 14.4501C65.3863 14.6768 65.0696 15.0668 64.8896 15.6201L62.6896 14.9301C62.9563 14.0168 63.4629 13.2834 64.2096 12.7301C64.9629 12.1768 65.9763 11.9001 67.2496 11.9001C68.2096 11.9001 69.0529 12.0568 69.7796 12.3701C70.5129 12.6834 71.0563 13.1968 71.4096 13.9101C71.6029 14.2901 71.7196 14.6801 71.7596 15.0801C71.7996 15.4734 71.8196 15.9034 71.8196 16.3701V23.0001H69.7096V20.6601L70.0596 21.0401C69.5729 21.8201 69.0029 22.3934 68.3496 22.7601C67.7029 23.1201 66.8929 23.3001 65.9196 23.3001ZM66.3996 21.3801C66.9463 21.3801 67.4129 21.2834 67.7996 21.0901C68.1863 20.8968 68.4929 20.6601 68.7196 20.3801C68.9529 20.1001 69.1096 19.8368 69.1896 19.5901C69.3163 19.2834 69.3863 18.9334 69.3996 18.5401C69.4196 18.1401 69.4296 17.8168 69.4296 17.5701L70.1696 17.7901C69.4429 17.9034 68.8196 18.0034 68.2996 18.0901C67.7796 18.1768 67.3329 18.2601 66.9596 18.3401C66.5863 18.4134 66.2563 18.4968 65.9696 18.5901C65.6896 18.6901 65.4529 18.8068 65.2596 18.9401C65.0663 19.0734 64.9163 19.2268 64.8096 19.4001C64.7096 19.5734 64.6596 19.7768 64.6596 20.0101C64.6596 20.2768 64.7263 20.5134 64.8596 20.7201C64.9929 20.9201 65.1863 21.0801 65.4396 21.2001C65.6996 21.3201 66.0196 21.3801 66.3996 21.3801Z" fill="black"/>
<path d="M78.753 23.3001C77.7597 23.3001 76.893 23.0501 76.153 22.5501C75.413 22.0501 74.8397 21.3701 74.433 20.5101C74.0264 19.6501 73.823 18.6801 73.823 17.6001C73.823 16.5068 74.0264 15.5334 74.433 14.6801C74.8464 13.8201 75.4297 13.1434 76.183 12.6501C76.9364 12.1501 77.823 11.9001 78.843 11.9001C79.8697 11.9001 80.7297 12.1501 81.423 12.6501C82.123 13.1434 82.653 13.8201 83.013 14.6801C83.373 15.5401 83.553 16.5134 83.553 17.6001C83.553 18.6734 83.373 19.6434 83.013 20.5101C82.653 21.3701 82.1164 22.0501 81.403 22.5501C80.6897 23.0501 79.8064 23.3001 78.753 23.3001ZM79.123 21.1401C79.7697 21.1401 80.2897 20.9934 80.683 20.7001C81.083 20.4001 81.373 19.9834 81.553 19.4501C81.7397 18.9168 81.833 18.3001 81.833 17.6001C81.833 16.8934 81.7397 16.2768 81.553 15.7501C81.373 15.2168 81.0897 14.8034 80.703 14.5101C80.3164 14.2101 79.8164 14.0601 79.203 14.0601C78.5564 14.0601 78.023 14.2201 77.603 14.5401C77.183 14.8534 76.873 15.2801 76.673 15.8201C76.473 16.3534 76.373 16.9468 76.373 17.6001C76.373 18.2601 76.4697 18.8601 76.663 19.4001C76.863 19.9334 77.1664 20.3568 77.573 20.6701C77.9797 20.9834 78.4964 21.1401 79.123 21.1401ZM81.833 23.0001V15.4201H81.533V8.6001H83.963V23.0001H81.833Z" fill="black"/>
<path d="M86.9668 10.5601V8.3501H89.3768V10.5601H86.9668ZM86.9668 23.0001V12.2001H89.3768V23.0001H86.9668Z" fill="black"/>
<path d="M99.8423 23.0001V17.8001C99.8423 17.4601 99.8189 17.0834 99.7723 16.6701C99.7256 16.2568 99.6156 15.8601 99.4423 15.4801C99.2756 15.0934 99.0223 14.7768 98.6823 14.5301C98.3489 14.2834 97.8956 14.1601 97.3223 14.1601C97.0156 14.1601 96.7123 14.2101 96.4123 14.3101C96.1123 14.4101 95.8389 14.5834 95.5923 14.8301C95.3523 15.0701 95.1589 15.4034 95.0123 15.8301C94.8656 16.2501 94.7923 16.7901 94.7923 17.4501L93.3623 16.8401C93.3623 15.9201 93.5389 15.0868 93.8923 14.3401C94.2523 13.5934 94.7789 13.0001 95.4723 12.5601C96.1656 12.1134 97.0189 11.8901 98.0323 11.8901C98.8323 11.8901 99.4923 12.0234 100.012 12.2901C100.532 12.5568 100.946 12.8968 101.252 13.3101C101.559 13.7234 101.786 14.1634 101.932 14.6301C102.079 15.0968 102.172 15.5401 102.212 15.9601C102.259 16.3734 102.282 16.7101 102.282 16.9701V23.0001H99.8423ZM92.3523 23.0001V12.2001H94.5023V15.5501H94.7923V23.0001H92.3523Z" fill="black"/>
<path d="M109.432 28.1001C108.832 28.1001 108.255 28.0068 107.702 27.8201C107.155 27.6334 106.662 27.3634 106.222 27.0101C105.782 26.6634 105.422 26.2434 105.142 25.7501L107.362 24.6501C107.568 25.0434 107.858 25.3334 108.232 25.5201C108.612 25.7134 109.015 25.8101 109.442 25.8101C109.942 25.8101 110.388 25.7201 110.782 25.5401C111.175 25.3668 111.478 25.1068 111.692 24.7601C111.912 24.4201 112.015 23.9934 112.002 23.4801V20.4101H112.302V12.2001H114.412V23.5201C114.412 23.7934 114.398 24.0534 114.372 24.3001C114.352 24.5534 114.315 24.8001 114.262 25.0401C114.102 25.7401 113.795 26.3134 113.342 26.7601C112.888 27.2134 112.325 27.5501 111.652 27.7701C110.985 27.9901 110.245 28.1001 109.432 28.1001ZM109.222 23.3001C108.228 23.3001 107.362 23.0501 106.622 22.5501C105.882 22.0501 105.308 21.3701 104.902 20.5101C104.495 19.6501 104.292 18.6801 104.292 17.6001C104.292 16.5068 104.495 15.5334 104.902 14.6801C105.315 13.8201 105.898 13.1434 106.652 12.6501C107.405 12.1501 108.292 11.9001 109.312 11.9001C110.338 11.9001 111.198 12.1501 111.892 12.6501C112.592 13.1434 113.122 13.8201 113.482 14.6801C113.842 15.5401 114.022 16.5134 114.022 17.6001C114.022 18.6734 113.842 19.6434 113.482 20.5101C113.122 21.3701 112.585 22.0501 111.872 22.5501C111.158 23.0501 110.275 23.3001 109.222 23.3001ZM109.592 21.1401C110.238 21.1401 110.758 20.9934 111.152 20.7001C111.552 20.4001 111.842 19.9834 112.022 19.4501C112.208 18.9168 112.302 18.3001 112.302 17.6001C112.302 16.8934 112.208 16.2768 112.022 15.7501C111.842 15.2168 111.558 14.8034 111.172 14.5101C110.785 14.2101 110.285 14.0601 109.672 14.0601C109.025 14.0601 108.492 14.2201 108.072 14.5401C107.652 14.8534 107.342 15.2801 107.142 15.8201C106.942 16.3534 106.842 16.9468 106.842 17.6001C106.842 18.2601 106.938 18.8601 107.132 19.4001C107.332 19.9334 107.635 20.3568 108.042 20.6701C108.448 20.9834 108.965 21.1401 109.592 21.1401Z" fill="black"/>
<path d="M125.91 23.3001C124.797 23.3001 123.847 23.0534 123.06 22.5601C122.273 22.0601 121.67 21.3801 121.25 20.5201C120.837 19.6601 120.627 18.6868 120.62 17.6001C120.627 16.4934 120.843 15.5134 121.27 14.6601C121.703 13.8001 122.317 13.1268 123.11 12.6401C123.903 12.1468 124.847 11.9001 125.94 11.9001C127.167 11.9001 128.203 12.2101 129.05 12.8301C129.903 13.4434 130.46 14.2834 130.72 15.3501L128.32 16.0001C128.133 15.4201 127.823 14.9701 127.39 14.6501C126.957 14.3234 126.463 14.1601 125.91 14.1601C125.283 14.1601 124.767 14.3101 124.36 14.6101C123.953 14.9034 123.653 15.3101 123.46 15.8301C123.267 16.3501 123.17 16.9401 123.17 17.6001C123.17 18.6268 123.4 19.4568 123.86 20.0901C124.32 20.7234 125.003 21.0401 125.91 21.0401C126.55 21.0401 127.053 20.8934 127.42 20.6001C127.793 20.3068 128.073 19.8834 128.26 19.3301L130.72 19.8801C130.387 20.9801 129.803 21.8268 128.97 22.4201C128.137 23.0068 127.117 23.3001 125.91 23.3001Z" fill="black"/>
<path d="M135.568 23.3001C134.788 23.3001 134.128 23.1534 133.588 22.8601C133.048 22.5601 132.638 22.1634 132.358 21.6701C132.085 21.1768 131.948 20.6334 131.948 20.0401C131.948 19.5201 132.035 19.0534 132.208 18.6401C132.381 18.2201 132.648 17.8601 133.008 17.5601C133.368 17.2534 133.835 17.0034 134.408 16.8101C134.841 16.6701 135.348 16.5434 135.928 16.4301C136.515 16.3168 137.148 16.2134 137.828 16.1201C138.515 16.0201 139.231 15.9134 139.978 15.8001L139.118 16.2901C139.125 15.5434 138.958 14.9934 138.618 14.6401C138.278 14.2868 137.705 14.1101 136.898 14.1101C136.411 14.1101 135.941 14.2234 135.488 14.4501C135.035 14.6768 134.718 15.0668 134.538 15.6201L132.338 14.9301C132.605 14.0168 133.111 13.2834 133.858 12.7301C134.611 12.1768 135.625 11.9001 136.898 11.9001C137.858 11.9001 138.701 12.0568 139.428 12.3701C140.161 12.6834 140.705 13.1968 141.058 13.9101C141.251 14.2901 141.368 14.6801 141.408 15.0801C141.448 15.4734 141.468 15.9034 141.468 16.3701V23.0001H139.358V20.6601L139.708 21.0401C139.221 21.8201 138.651 22.3934 137.998 22.7601C137.351 23.1201 136.541 23.3001 135.568 23.3001ZM136.048 21.3801C136.595 21.3801 137.061 21.2834 137.448 21.0901C137.835 20.8968 138.141 20.6601 138.368 20.3801C138.601 20.1001 138.758 19.8368 138.838 19.5901C138.965 19.2834 139.035 18.9334 139.048 18.5401C139.068 18.1401 139.078 17.8168 139.078 17.5701L139.818 17.7901C139.091 17.9034 138.468 18.0034 137.948 18.0901C137.428 18.1768 136.981 18.2601 136.608 18.3401C136.235 18.4134 135.905 18.4968 135.618 18.5901C135.338 18.6901 135.101 18.8068 134.908 18.9401C134.715 19.0734 134.565 19.2268 134.458 19.4001C134.358 19.5734 134.308 19.7768 134.308 20.0101C134.308 20.2768 134.375 20.5134 134.508 20.7201C134.641 20.9201 134.835 21.0801 135.088 21.2001C135.348 21.3201 135.668 21.3801 136.048 21.3801Z" fill="black"/>
<path d="M144.071 23.0001V12.2001H146.201V14.8301L145.941 14.4901C146.075 14.1301 146.251 13.8034 146.471 13.5101C146.698 13.2101 146.968 12.9634 147.281 12.7701C147.548 12.5901 147.841 12.4501 148.161 12.3501C148.488 12.2434 148.821 12.1801 149.161 12.1601C149.501 12.1334 149.831 12.1468 150.151 12.2001V14.4501C149.831 14.3568 149.461 14.3268 149.041 14.3601C148.628 14.3934 148.255 14.5101 147.921 14.7101C147.588 14.8901 147.315 15.1201 147.101 15.4001C146.895 15.6801 146.741 16.0001 146.641 16.3601C146.541 16.7134 146.491 17.0968 146.491 17.5101V23.0001H144.071Z" fill="black"/>
<path d="M156.194 23.3001C155.201 23.3001 154.334 23.0501 153.594 22.5501C152.854 22.0501 152.281 21.3701 151.874 20.5101C151.468 19.6501 151.264 18.6801 151.264 17.6001C151.264 16.5068 151.468 15.5334 151.874 14.6801C152.288 13.8201 152.871 13.1434 153.624 12.6501C154.378 12.1501 155.264 11.9001 156.284 11.9001C157.311 11.9001 158.171 12.1501 158.864 12.6501C159.564 13.1434 160.094 13.8201 160.454 14.6801C160.814 15.5401 160.994 16.5134 160.994 17.6001C160.994 18.6734 160.814 19.6434 160.454 20.5101C160.094 21.3701 159.558 22.0501 158.844 22.5501C158.131 23.0501 157.248 23.3001 156.194 23.3001ZM156.564 21.1401C157.211 21.1401 157.731 20.9934 158.124 20.7001C158.524 20.4001 158.814 19.9834 158.994 19.4501C159.181 18.9168 159.274 18.3001 159.274 17.6001C159.274 16.8934 159.181 16.2768 158.994 15.7501C158.814 15.2168 158.531 14.8034 158.144 14.5101C157.758 14.2101 157.258 14.0601 156.644 14.0601C155.998 14.0601 155.464 14.2201 155.044 14.5401C154.624 14.8534 154.314 15.2801 154.114 15.8201C153.914 16.3534 153.814 16.9468 153.814 17.6001C153.814 18.2601 153.911 18.8601 154.104 19.4001C154.304 19.9334 154.608 20.3568 155.014 20.6701C155.421 20.9834 155.938 21.1401 156.564 21.1401ZM159.274 23.0001V15.4201H158.974V8.6001H161.404V23.0001H159.274Z" fill="black"/>
<path d="M168.378 23.3001C167.045 23.3001 165.962 23.0001 165.128 22.4001C164.295 21.8001 163.788 20.9568 163.608 19.8701L166.068 19.4901C166.195 20.0234 166.475 20.4434 166.908 20.7501C167.342 21.0568 167.888 21.2101 168.548 21.2101C169.128 21.2101 169.575 21.0968 169.888 20.8701C170.208 20.6368 170.368 20.3201 170.368 19.9201C170.368 19.6734 170.308 19.4768 170.188 19.3301C170.075 19.1768 169.822 19.0301 169.428 18.8901C169.035 18.7501 168.432 18.5734 167.618 18.3601C166.712 18.1201 165.992 17.8634 165.458 17.5901C164.925 17.3101 164.542 16.9801 164.308 16.6001C164.075 16.2201 163.958 15.7601 163.958 15.2201C163.958 14.5468 164.135 13.9601 164.488 13.4601C164.842 12.9601 165.335 12.5768 165.968 12.3101C166.602 12.0368 167.348 11.9001 168.208 11.9001C169.048 11.9001 169.792 12.0301 170.438 12.2901C171.092 12.5501 171.618 12.9201 172.018 13.4001C172.418 13.8801 172.665 14.4434 172.758 15.0901L170.298 15.5301C170.238 15.0701 170.028 14.7068 169.668 14.4401C169.315 14.1734 168.842 14.0234 168.248 13.9901C167.682 13.9568 167.225 14.0434 166.878 14.2501C166.532 14.4501 166.358 14.7334 166.358 15.1001C166.358 15.3068 166.428 15.4834 166.568 15.6301C166.708 15.7768 166.988 15.9234 167.408 16.0701C167.835 16.2168 168.468 16.3968 169.308 16.6101C170.168 16.8301 170.855 17.0834 171.368 17.3701C171.888 17.6501 172.262 17.9868 172.488 18.3801C172.722 18.7734 172.838 19.2501 172.838 19.8101C172.838 20.8968 172.442 21.7501 171.648 22.3701C170.862 22.9901 169.772 23.3001 168.378 23.3001Z" fill="black"/>
</svg>
