<svg width="24" height="28" viewBox="0 0 24 28" fill="none" xmlns="http://www.w3.org/2000/svg">
<path fill-rule="evenodd" clip-rule="evenodd" d="M16 18.7998H20.5858C21.3668 18.7998 22 18.1666 22 17.3856C22 17.0105 21.851 16.6508 21.5858 16.3856L20.5858 15.3856C20.2107 15.0105 20 14.5018 20 13.9714L20 10.7705C20 6.36839 16.4314 2.7998 12.0293 2.7998C7.61789 2.7998 4.04543 6.383 4.05867 10.7944L4.06814 13.9474C4.06977 14.492 3.84928 15.0137 3.45759 15.392L2.42864 16.3858C2.15471 16.6504 2 17.0149 2 17.3957C2 18.1712 2.62863 18.7998 3.40408 18.7998H8C8 21.0089 9.79086 22.7998 12 22.7998C14.2091 22.7998 16 21.0089 16 18.7998ZM19.5251 16.4462L20.3787 17.2998H3.64147L4.49967 16.4709C5.18513 15.8088 5.57099 14.8959 5.56813 13.9429L5.55867 10.7899C5.54792 7.20868 8.44807 4.2998 12.0293 4.2998C15.603 4.2998 18.5 7.19682 18.5 10.7705L18.5 13.9714C18.5 14.8996 18.8687 15.7899 19.5251 16.4462ZM14.5 18.7998H9.5C9.5 20.1805 10.6193 21.2998 12 21.2998C13.3807 21.2998 14.5 20.1805 14.5 18.7998Z" fill="black"/>
</svg>
