<svg width="24" height="28" viewBox="0 0 24 28" fill="none" xmlns="http://www.w3.org/2000/svg">
<path fill-rule="evenodd" clip-rule="evenodd" d="M12 11.2998C13.933 11.2998 15.5 9.7328 15.5 7.7998C15.5 5.86681 13.933 4.2998 12 4.2998C10.067 4.2998 8.5 5.86681 8.5 7.7998C8.5 9.7328 10.067 11.2998 12 11.2998ZM12 12.7998C14.7614 12.7998 17 10.5612 17 7.7998C17 5.03838 14.7614 2.7998 12 2.7998C9.23858 2.7998 7 5.03838 7 7.7998C7 10.5612 9.23858 12.7998 12 12.7998Z" fill="black"/>
<path fill-rule="evenodd" clip-rule="evenodd" d="M9 16.5498C6.65279 16.5498 4.75 18.4526 4.75 20.7998V21.7998C4.75 22.214 4.41421 22.5498 4 22.5498C3.58579 22.5498 3.25 22.214 3.25 21.7998V20.7998C3.25 17.6242 5.82436 15.0498 9 15.0498H15C18.1756 15.0498 20.75 17.6242 20.75 20.7998V21.7998C20.75 22.214 20.4142 22.5498 20 22.5498C19.5858 22.5498 19.25 22.214 19.25 21.7998V20.7998C19.25 18.4526 17.3472 16.5498 15 16.5498H9Z" fill="black"/>
</svg>
