<svg width="21" height="20" viewBox="0 0 21 20" fill="none" xmlns="http://www.w3.org/2000/svg">
<rect x="0.5" width="20" height="20" rx="10" fill="#419FD9"/>
<rect x="0.5" width="20" height="20" rx="10" fill="url(#paint0_linear_211_10264)"/>
<path d="M4.99474 9.77972C7.90278 8.4861 9.84193 7.63327 10.8122 7.22122C13.5825 6.04475 14.1581 5.84038 14.5333 5.83356C14.6158 5.83215 14.8003 5.85303 14.9199 5.95205C15.0208 6.03566 15.0485 6.1486 15.0618 6.22787C15.0751 6.30715 15.0917 6.48773 15.0785 6.62883C14.9284 8.23934 14.2788 12.1476 13.9483 13.9514C13.8085 14.7147 13.5332 14.9706 13.2666 14.9956C12.6873 15.05 12.2474 14.6047 11.6864 14.2292C10.8084 13.6416 10.3124 13.2758 9.46018 12.7024C8.47529 12.0397 9.11375 11.6755 9.67503 11.0803C9.82193 10.9245 12.3743 8.55414 12.4237 8.33911C12.4299 8.31221 12.4356 8.21197 12.3773 8.15903C12.319 8.1061 12.2329 8.1242 12.1708 8.1386C12.0827 8.15901 10.6801 9.10553 7.96305 10.9782C7.56494 11.2573 7.20434 11.3933 6.88125 11.3862C6.52508 11.3783 5.83994 11.1806 5.33061 11.0115C4.7059 10.8042 4.20939 10.6946 4.25262 10.3424C4.27514 10.159 4.52251 9.97146 4.99474 9.77972Z" fill="white"/>
<defs>
<linearGradient id="paint0_linear_211_10264" x1="10.5" y1="0" x2="10.5" y2="19.8516" gradientUnits="userSpaceOnUse">
<stop stop-color="#2AABEE"/>
<stop offset="1" stop-color="#229ED9"/>
</linearGradient>
</defs>
</svg>
