<svg width="17" height="14" viewBox="0 0 17 14" fill="none" xmlns="http://www.w3.org/2000/svg">
<path d="M13.4587 12.3748V8.12484M11.3337 10.2498H15.5837M15.5837 4.58317H1.41699M15.5837 5.99984V3.30817C15.5837 2.51476 15.5837 2.11806 15.4293 1.81502C15.2934 1.54846 15.0767 1.33173 14.8101 1.19591C14.5071 1.0415 14.1104 1.0415 13.317 1.0415H3.68366C2.89025 1.0415 2.49355 1.0415 2.19051 1.19591C1.92394 1.33173 1.70722 1.54845 1.5714 1.81502C1.41699 2.11806 1.41699 2.51476 1.41699 3.30817V8.6915C1.41699 9.48491 1.41699 9.88161 1.5714 10.1847C1.70722 10.4512 1.92394 10.6679 2.19051 10.8038C2.49355 10.9582 2.89025 10.9582 3.68366 10.9582H8.50033" stroke="white" stroke-width="1.5" stroke-linecap="round" stroke-linejoin="round"/>
</svg>
